<?xml version="1.0" encoding="iso-8859-1"?>
<!-- Generator: Adobe Illustrator 19.0.0, SVG Export Plug-In . SVG Version: 6.00 Build 0)  -->
<svg 
	version="1.1" 
	id="Capa_1" 
	xmlns="http://www.w3.org/2000/svg" 
	xmlns:xlink="http://www.w3.org/1999/xlink" 
	x="0px" 
	y="0px" 
	viewBox="0 0 512 512" 
	style="enable-background:new 0 0 512 512;" 
	xml:space="preserve"
>
	<path d="M462,75.998H297c-5.522,0-10,4.478-10,10c0,5.522,4.478,10,10,10h165c6.817,0,13.106,2.29,18.15,6.134L457.782,124.5
			c-3.908-1.663-8.204-2.584-12.712-2.584c-17.961,0-32.573,14.612-32.573,32.573c0,4.508,0.922,8.804,2.584,12.712l-33.011,33.01
			c-4.454-2.29-9.496-3.591-14.839-3.591c-5.312,0-10.325,1.286-14.76,3.551L317.83,165.53c2.385-4.525,3.742-9.672,3.742-15.133
			c0-17.96-14.612-32.572-32.573-32.572s-32.573,14.612-32.573,32.572c0,4.663,0.992,9.096,2.765,13.11L220,202.698V68.127V39.5
			C220,17.72,202.28,0,180.5,0h-141C17.72,0,0,17.72,0,39.5v245C0,306.28,17.72,324,39.5,324H54v53.998c0,27.57,22.43,50,50,50
			h129.036v24.023c-27.12,0.526-49.024,22.735-49.024,49.979c0,5.522,4.478,10,10,10h178.049c5.522,0,10-4.478,10-10
			c0-27.244-21.904-49.453-49.024-49.979v-24.023H462c27.57,0,50-22.43,50-50v-252C512,98.428,489.57,75.998,462,75.998z
			 M445.07,141.916c2.642,0,5.092,0.823,7.118,2.22c0.017,0.017,0.031,0.036,0.048,0.053c0.493,0.492,1.024,0.922,1.584,1.29
			c2.353,2.286,3.822,5.477,3.822,9.009c0,6.933-5.64,12.572-12.572,12.572c-6.932,0-12.573-5.64-12.573-12.572
			S438.138,141.916,445.07,141.916z M367.232,216.62c6.932,0,12.573,5.641,12.573,12.573c0,6.933-5.641,12.573-12.573,12.573
			s-12.572-5.641-12.572-12.573S360.3,216.62,367.232,216.62z M289,137.824c6.933,0,12.573,5.64,12.573,12.572
			S295.933,162.97,289,162.97c-6.933,0-12.573-5.641-12.573-12.573C276.427,143.465,282.067,137.824,289,137.824z M20,39.5
			C20,28.748,28.748,20,39.5,20h141c10.752,0,19.5,8.748,19.5,19.5v18.627H20V39.5z M20,78.127h180v148.709c0,0.003,0,0.007,0,0.01
			V250H20V78.127z M39.5,304c-10.752,0-19.5-8.748-19.5-19.5V270h180v14.5c0,10.752-8.748,19.5-19.5,19.5H39.5z M360.348,492
			H205.725c4.128-11.643,15.252-20.004,28.291-20.004h9.021h80h9.021C345.096,471.996,356.22,480.357,360.348,492z M253.036,451.996
			v-23.998h60v23.998H253.036z M491.998,339.997h-37V256c0-5.522-4.478-10-10-10c-5.522,0-10,4.478-10,10v83.998h-58V287
			c0-5.522-4.478-10-10-10c-5.522,0-10,4.478-10,10v52.998h-58V236.002c0-5.522-4.478-10-10-10c-5.522,0-10,4.478-10,10v103.996h-69
			c-5.522,0-10,4.478-10,10c0,5.522,4.478,10,10,10h282v18c0.002,16.542-13.456,30-29.998,30H323.036h-80H104
			c-16.542,0-30-13.458-30-30V324h106.5c21.78,0,39.5-17.72,39.5-39.5V260v-29.017l52.512-52.512
			c4.84,2.854,10.475,4.498,16.488,4.498c5.226,0,10.164-1.244,14.545-3.441l34.746,34.746c-2.315,4.473-3.632,9.543-3.632,14.918
			c0,17.961,14.612,32.573,32.572,32.573c17.961,0,32.573-14.612,32.573-32.573c0-5.343-1.301-10.385-3.591-14.839l32.002-32.002
			c4.92,2.987,10.69,4.709,16.854,4.709c17.96,0,32.572-14.612,32.572-32.572c0-6.165-1.722-11.934-4.709-16.854l18.309-18.31
			c0.49,2.148,0.757,4.379,0.757,6.673V339.997z" />
	<path d="M134.793,29H85.291c-5.522,0-10,4.478-10,10s4.478,10,10,10h49.502c5.522,0,10-4.478,10-10S140.315,29,134.793,29z" />
	<path d="M110.066,277h-0.131c-5.522,0-10,4.478-10,10c0,5.522,4.477,10,10,10h0.131c5.522,0,10-4.478,10-10
			C120.066,281.478,115.588,277,110.066,277z" />
	<path d="M110,98c-5.522,0-10,4.478-10,10v5.028c-23.905,4.675-42,25.782-42,51.035c0,28.673,23.327,52,52,52
			c25.253,0,46.36-18.095,51.035-42h5.028c5.522,0,10-4.478,10-10C176.063,127.636,146.428,98,110,98z M110,196.063
			c-17.645,0-32-14.355-32-32c0-14.154,9.237-26.191,22-30.4v30.4c0,5.522,4.478,10,10,10h30.4
			C136.191,186.826,124.154,196.063,110,196.063z M120,154.063v-34.971c17.389,3.863,31.107,17.582,34.971,34.971H120z" />
	<path d="M290.069,374.93C288.21,373.069,285.63,372,283,372s-5.21,1.069-7.07,2.93c-1.86,1.861-2.93,4.44-2.93,7.07
			s1.069,5.21,2.93,7.069c1.86,1.86,4.44,2.931,7.07,2.931s5.21-1.07,7.069-2.931C291.93,387.21,293,384.63,293,382
			S291.93,376.79,290.069,374.93z" />
	<path d="M452.069,208.93C450.21,207.07,447.63,206,445,206s-5.21,1.069-7.07,2.93c-1.86,1.861-2.93,4.44-2.93,7.07
			s1.069,5.21,2.93,7.069c1.86,1.861,4.44,2.931,7.07,2.931s5.21-1.07,7.069-2.931C453.93,221.21,455,218.63,455,216
			S453.93,210.79,452.069,208.93z" />
</svg>
