<svg height="512" viewBox="0 0 60 60" width="512" xmlns="http://www.w3.org/2000/svg">
    <g id="Page-1" fill="none" fill-rule="evenodd">
        <g id="008---Virus" fill-rule="nonzero">
            <path id="Shape" d="m59 3v6h-58v-6c.0032948-1.10320187.89679813-1.9967052 2-2h54c1.1032019.0032948 1.9967052.89679813 2 2z" fill="#607d8b" />
            <path id="Shape" d="m57 1h-3c1.1032019.0032948 1.9967052.89679813 2 2v6h3v-6c-.0032948-1.10320187-.8967981-1.9967052-2-2z" fill="#37474f" />
            <path id="Shape" d="m59 9v34c-.0032948 1.1032019-.8967981 1.9967052-2 2h-54c-1.10320187-.0032948-1.9967052-.8967981-2-2v-34z" fill="#f5f5f5" />
            <path id="Shape" d="m56 9v34c-.0032948 1.1032019-.8967981 1.9967052-2 2h3c1.1032019-.0032948 1.9967052-.8967981 2-2v-34z" fill="#cfd8dc" />
            <path id="Shape" d="m23 31h14c2.209139 0 4 1.790861 4 4v13c0 6.0751322-4.9248678 11-11 11s-11-4.9248678-11-11v-13c0-2.209139 1.790861-4 4-4z" fill="#673ab7" />
            <path id="Shape" d="m37 31h-3c2.209139 0 4 1.790861 4 4v13c-.0025697 5.4923668-4.0585227 10.1400619-9.5 10.886 3.1522958.4596675 6.3481962-.4795905 8.7505284-2.5717336 2.4023323-2.0921431 3.7717282-5.1287103 3.7494716-8.3142664v-13c0-2.209139-1.790861-4-4-4z" fill="#4527a0" />
            <path id="Shape" d="m30 23c3.3137085 0 6 2.6862915 6 6v2h-12v-2c0-3.3137085 2.6862915-6 6-6z" fill="#ffdc00" />
            <circle id="Oval" cx="5" cy="5" fill="#f44335" r="1" />
            <circle id="Oval" cx="9" cy="5" fill="#ffdc00" r="1" />
            <circle id="Oval" cx="13" cy="5" fill="#60a917" r="1" />
            <g fill="#000">
                <path id="Shape" d="m57 0h-54c-1.65685425 0-3 1.34314575-3 3v40c0 1.6568542 1.34314575 3 3 3h3c.55228475 0 1-.4477153 1-1s-.44771525-1-1-1h-3c-.55228475 0-1-.4477153-1-1v-33h56v33c0 .5522847-.4477153 1-1 1h-3c-.5522847 0-1 .4477153-1 1s.4477153 1 1 1h3c1.6568542 0 3-1.3431458 3-3v-40c0-1.65685425-1.3431458-3-3-3zm-55 8v-5c0-.55228475.44771525-1 1-1h54c.5522847 0 1 .44771525 1 1v5z" />
                <path id="Shape" d="m33 4h-6c-.5522847 0-1 .44771525-1 1s.4477153 1 1 1h6c.5522847 0 1-.44771525 1-1s-.4477153-1-1-1z" />
                <path id="Shape" d="m55 4h-11c-.5522847 0-1 .44771525-1 1s.4477153 1 1 1h11c.5522847 0 1-.44771525 1-1s-.4477153-1-1-1z" />
                <path id="Shape" d="m5 15h2c.55228475 0 1-.4477153 1-1s-.44771525-1-1-1h-2c-.55228475 0-1 .4477153-1 1s.44771525 1 1 1z" />
                <path id="Shape" d="m5 23h2c.55228475 0 1-.4477153 1-1s-.44771525-1-1-1h-2c-.55228475 0-1 .4477153-1 1s.44771525 1 1 1z" />
                <path id="Shape" d="m20 13h-9c-.5522847 0-1 .4477153-1 1s.4477153 1 1 1h9c.5522847 0 1-.4477153 1-1s-.4477153-1-1-1z" />
                <path id="Shape" d="m5 19h8c.5522847 0 1-.4477153 1-1s-.4477153-1-1-1h-8c-.55228475 0-1 .4477153-1 1s.44771525 1 1 1z" />
                <path id="Shape" d="m23 29v1c-2.7600532.0033061-4.9966939 2.2399468-5 5v1.054l-3.1-.932c-.5841498-.1742406-1.0569455-.6053761-1.2841778-1.1710229s-.1840909-1.2040451.1171778-1.7339771l2.13-3.72c.2744855-.4793832.1083832-1.0905145-.371-1.365s-1.0905145-.1083832-1.365.371l-2.127 3.725c-.6025893 1.0595931-.6891387 2.3361309-.2350877 3.4673643s1.3991448 1.9936934 2.5670877 2.3426357l3.668 1.105v4.357l-3.67 1.376c-1.0011232.375399-2.1204482-.1029902-2.541-1.086l-1.87-4.37c-.13472252-.3371718-.44162064-.574827-.80177905-.6208801-.36015841-.0460532-.71698187.1067325-.93221024.3991564s-.2550407.6785345-.10401071 1.0087237l1.87 4.37c.8406839 1.9653577 3.078059 2.9224081 5.08 2.173l2.969-1.117v3.367c0 .286.023.567.043.849l-3.708 1.112c-1.170248.3478075-2.1175908 1.2110023-2.5724432 2.3439453-.4548525 1.1329429-.3674102 2.4115818.2374432 3.4720547l2.13 3.72c.2744855.4793832.8856168.6454855 1.365.371s.6454855-.8856168.371-1.365l-2.126-3.715c-.3027659-.533595-.3451209-1.1762864-.115-1.745.2262816-.5642335.6987511-.9935837 1.282-1.165l3.448-1.034c1.3057929 5.3801455 6.1270535 9.1655375 11.6633876 9.1574588 5.5363342-.0080788 10.3465267-3.8075253 11.6366124-9.1914588l3.561 1.068c.5841498.1742406 1.0569455.6053761 1.2841778 1.1710229s.1840909 1.2040451-.1171778 1.7339771l-2.13 3.72c-.2744855.4793832-.1083831 1.0905144.371 1.3649999.4793832.2744855 1.0905145.1083832 1.365-.3709999l2.132-3.725c.6025633-1.0597285.6889794-2.3363957.2347216-3.4676592s-1.3996004-1.993629-2.5677216-2.3423408l-3.828-1.149c.018-.27.041-.538.041-.813v-3.412l3.091 1.159c2.0013644.7481424 4.2373584-.2086939 5.078-2.173l1.87-4.37c.15103-.3301892.1112177-.7162998-.1040107-1.0087237s-.5720518-.4452096-.9322102-.3991564c-.3601585.0460531-.6670566.2837083-.8017791.6208801l-1.87 4.369c-.419754.9827388-1.5379116 1.4618863-2.539 1.088l-3.793-1.422v-4.273l3.785-1.14c1.1698913-.3482694 2.116736-1.2116536 2.5711746-2.3445361.4544386-1.1328826.3667299-2.4112621-.2381746-3.4714639l-2.13-3.72c-.2744855-.4793832-.8856168-.6454855-1.365-.371s-.6454855.8856168-.371 1.365l2.128 3.715c.3035876.5305395.3478905 1.1707814.1202699 1.7380789s-.7021701.9993569-1.2882699 1.1729211l-3.212.967v-1.09c-.0033061-2.7600532-2.2399468-4.9966939-5-5v-1c-.0009892-2.5602175-1.3996026-4.9156559-3.647-6.142.4614557-1.3595739 1.5292665-2.427015 2.889-2.888.3539356-.0796449.636976-.3447323.7396106-.6926975.1026346-.3479653.0087636-.7242251-.2452935-.9832013-.2540571-.2589763-.6284478-.3600447-.9783171-.2641012-2.0062694.6136452-3.6002164 2.1463151-4.292 4.127-.9661243-.2093317-1.9658757-.2093317-2.932 0-.6917836-1.9806849-2.2857306-3.5133548-4.292-4.127-.5295871-.1216256-1.0593825.2018958-1.1930874.7285629-.133705.5266672.1776157 1.0637226.7010874 1.2094371 1.3642928.4586428 2.4366474 1.5272996 2.9 2.89-2.2485566 1.2255521-3.6484119 3.5811442-3.65 6.142zm17 6v13c-.0064731 5.1329477-3.8933834 9.4297111-9 9.949v-15.949c0-.5522847-.4477153-1-1-1s-1 .4477153-1 1v15.949c-5.1066166-.5192889-8.9935269-4.8160523-9-9.949v-13c0-1.6568542 1.3431458-3 3-3h14c1.6568542 0 3 1.3431458 3 3zm-10-11c2.7600532.0033061 4.9966939 2.2399468 5 5v1h-10v-1c.0033061-2.7600532 2.2399468-4.9966939 5-5z" />
                <path id="Shape" d="m30 35c-.5522847 0-1 .4477153-1 1v2c0 .5522847.4477153 1 1 1s1-.4477153 1-1v-2c0-.5522847-.4477153-1-1-1z" />
            </g>
        </g>
    </g>
</svg>