<?xml version="1.0" encoding="UTF-8"?>
<!DOCTYPE svg PUBLIC "-//W3C//DTD SVG 1.1//EN" "http://www.w3.org/Graphics/SVG/1.1/DTD/svg11.dtd">
<!-- Creator: CorelDRAW X8 -->
<svg xmlns="http://www.w3.org/2000/svg" xml:space="preserve" width="200mm" height="297mm" version="1.1" style="shape-rendering:geometricPrecision; text-rendering:geometricPrecision; image-rendering:optimizeQuality; fill-rule:evenodd; clip-rule:evenodd"
viewBox="3700 13000 13000 4000"
 xmlns:xlink="http://www.w3.org/1999/xlink">
 <defs>
  <style type="text/css">
   <![CDATA[
    .fil0 {fill:none}
    .fil1 {fill:#F1F1F2;fill-rule:nonzero}
   ]]>
  </style>
 </defs>
 <g id="Camada_x0020_1">
  <metadata id="CorelCorpID_0Corel-Layer"/>
  <g id="_2208182761360">
   <g id="_2208182756496">
    <polygon class="fil0" points="2578,16977 17401,16977 17401,13258 2578,13258 "/>
    <g id="_2207971231296">
     <path class="fil1" d="M7092 14575l-339 0 0 -323 1023 0 0 323 -338 0 0 1425 -346 0 0 -1425zm1196 1102l579 0 0 323 -926 0 0 -1748 926 0 0 323 -579 0 0 388 482 0 0 324 -482 0 0 390zm1385 -624c33,0 62,-11 87,-34 24,-20 37,-47 37,-79l0 -365 -329 0 0 478 205 0zm-205 323l0 624 -347 0 0 -1748 767 0c70,0 130,22 180,68 51,47 77,104 77,170l0 450c0,115 -45,206 -134,274 89,68 134,160 134,277l0 509 -348 0 0 -509c0,-32 -13,-59 -37,-82 -25,-22 -54,-33 -87,-33l-205 0zm1383 -54l168 0 -84 -745 -84 745zm-63 323l-71 355 -352 0 340 -1748 461 0 339 1748 -353 0 -69 -355 -295 0zm1044 -1070l-339 0 0 -323 1023 0 0 323 -338 0 0 1425 -346 0 0 -1425zm1196 1102l579 0 0 323 -926 0 0 -1748 926 0 0 323 -579 0 0 388 482 0 0 324 -482 0 0 390zm1492 -1102l-329 0 0 1102 329 0 0 -268 348 0 0 352c0,66 -26,122 -78,169 -50,46 -110,70 -179,70l-510 0c-70,0 -130,-24 -181,-70 -50,-47 -76,-103 -76,-169l0 -1271c0,-66 26,-123 76,-170 51,-46 111,-68 181,-68l510 0c69,0 129,22 179,68 52,47 78,104 78,170l0 351 -348 0 0 -266zm971 712l0 713 -347 0 0 -1748 347 0 0 711 328 0 0 -711 348 0 0 1748 -348 0 0 -713 -328 0z"/>
     <path class="fil1" d="M4613 14057l-141 0c-15,0 -28,13 -28,29l0 141c0,15 13,28 28,28l141 0c16,0 29,-13 29,-28l0 -141c0,-16 -13,-29 -29,-29z"/>
     <path class="fil1" d="M3981 14504l-141 0c-15,0 -28,13 -28,28l0 141c0,16 13,29 28,29l141 0c16,0 29,-13 29,-29l0 -141c0,-15 -13,-28 -29,-28z"/>
     <path class="fil1" d="M4093 13889l-187 0c-20,0 -37,17 -37,38l0 186c0,21 17,37 37,37l187 0c20,0 37,-16 37,-37l0 -186c0,-21 -17,-38 -37,-38z"/>
     <path class="fil1" d="M3959 15512l720 -838c45,-53 133,-21 133,49l0 197c0,54 -20,106 -55,147l-382 445 382 446c35,40 55,92 55,146l0 198c0,70 -88,102 -133,49l-720 -839z"/>
     <path class="fil1" d="M3959 15512l720 839c45,53 133,21 133,-49l0 -198c0,-54 -20,-106 -55,-146l-382 -446 -416 0z"/>
     <path class="fil1" d="M5884 14723l-719 -839c-46,-53 -133,-21 -133,49l0 198c0,53 19,105 54,146l382 446 -382 445c-35,41 -54,93 -54,146l0 198c0,70 87,102 133,49l719 -838z"/>
     <path class="fil1" d="M5884 14723l-719 838c-46,53 -133,21 -133,-49l0 -198c0,-53 19,-105 54,-146l382 -445 416 0z"/>
    </g>
   </g>
  </g>
 </g>
</svg>
